<svg width="60" height="60" viewBox="0 0 60 60" fill="none" xmlns="http://www.w3.org/2000/svg"><path d="M57.1072 29.6203C57.0276 29.4422 55.1104 25.193 50.819 20.9016C46.844 16.9266 40.0072 12.1875 29.9994 12.1875C19.9916 12.1875 13.1549 16.9266 9.1799 20.9016C4.88849 25.193 2.97131 29.4422 2.89162 29.6203C2.83943 29.7405 2.8125 29.8701 2.8125 30.0012C2.8125 30.1322 2.83943 30.2618 2.89162 30.382C2.97131 30.5625 4.88849 34.8094 9.1799 39.1008C13.1643 43.0852 19.994 47.8125 29.9994 47.8125C40.0049 47.8125 46.844 43.0758 50.819 39.1008C55.1104 34.8094 57.0276 30.5625 57.1072 30.382C57.1594 30.2618 57.1864 30.1322 57.1864 30.0012C57.1864 29.8701 57.1594 29.7405 57.1072 29.6203ZM49.4432 37.8234C44.0362 43.2141 37.4901 45.9375 29.9901 45.9375C22.4901 45.9375 15.9533 43.207 10.5369 37.8234C8.2323 35.525 6.29411 32.8865 4.79006 30C6.29691 27.1128 8.23829 24.4743 10.5463 22.1766C15.9627 16.793 22.4994 14.0625 29.9994 14.0625C37.4994 14.0625 44.0361 16.793 49.4526 22.1766C51.7603 24.4745 53.7016 27.113 55.2088 30C53.7019 32.8871 51.7605 35.5257 49.4526 37.8234H49.4432ZM29.9994 19.6875C27.9598 19.6875 25.966 20.2923 24.2701 21.4255C22.5742 22.5586 21.2525 24.1692 20.4719 26.0536C19.6914 27.9379 19.4872 30.0114 19.8851 32.0119C20.283 34.0123 21.2652 35.8498 22.7074 37.292C24.1496 38.7343 25.9871 39.7164 27.9876 40.1143C29.988 40.5123 32.0615 40.308 33.9459 39.5275C35.8302 38.747 37.4408 37.4252 38.574 35.7293C39.7071 34.0334 40.3119 32.0396 40.3119 30C40.3088 27.2659 39.2213 24.6447 37.288 22.7114C35.3547 20.7781 32.7335 19.6906 29.9994 19.6875ZM29.9994 38.4375C28.3307 38.4375 26.6993 37.9426 25.3118 37.0155C23.9243 36.0884 22.8428 34.7706 22.2042 33.2289C21.5656 31.6871 21.3985 29.9906 21.7241 28.3539C22.0496 26.7172 22.8532 25.2138 24.0332 24.0338C25.2132 22.8538 26.7166 22.0502 28.3534 21.7246C29.9901 21.3991 31.6866 21.5662 33.2283 22.2048C34.7701 22.8434 36.0878 23.9248 37.015 25.3124C37.9421 26.6999 38.4369 28.3312 38.4369 30C38.4369 32.2378 37.548 34.3839 35.9656 35.9662C34.3833 37.5486 32.2372 38.4375 29.9994 38.4375Z" fill="#49ADFF"></path><path fill-rule="evenodd" clip-rule="evenodd" d="M49.4432 37.8234C44.0362 43.2141 37.4901 45.9375 29.9901 45.9375C22.4901 45.9375 15.9533 43.207 10.5369 37.8234C8.2323 35.525 6.29411 32.8865 4.79006 30C6.29691 27.1128 8.23829 24.4743 10.5463 22.1766C15.9627 16.793 22.4994 14.0625 29.9994 14.0625C37.4994 14.0625 44.0361 16.793 49.4526 22.1766C51.7603 24.4745 53.7016 27.113 55.2088 30C53.7019 32.8871 51.7605 35.5257 49.4526 37.8234H49.4432ZM24.2701 21.4255C25.966 20.2923 27.9598 19.6875 29.9994 19.6875C32.7335 19.6906 35.3547 20.7781 37.288 22.7114C39.2213 24.6447 40.3088 27.2659 40.3119 30C40.3119 32.0396 39.7071 34.0334 38.574 35.7293C37.4408 37.4252 35.8302 38.747 33.9459 39.5275C32.0615 40.308 29.988 40.5123 27.9876 40.1143C25.9871 39.7164 24.1496 38.7343 22.7074 37.292C21.2652 35.8498 20.283 34.0123 19.8851 32.0119C19.4872 30.0114 19.6914 27.9379 20.4719 26.0536C21.2525 24.1692 22.5742 22.5586 24.2701 21.4255Z" fill="#5570FF" fill-opacity="0.1"></path></svg>