<svg width="195" height="40" viewBox="0 0 195 40" fill="none" xmlns="http://www.w3.org/2000/svg">
<path d="M51.4286 29.3869V9.70286H55.2365V29.3869H51.4286ZM54.2286 21.3229V17.9349H64.1405V21.3229H54.2286ZM54.2286 13.0629V9.70286H64.6165V13.0629H54.2286Z" fill="white"/>
<path d="M72.1519 29.6669C70.9572 29.6669 69.8932 29.4149 68.9599 28.9109C68.0453 28.4069 67.3266 27.7069 66.8039 26.8109C66.2813 25.9149 66.02 24.8789 66.02 23.7029V15.8629H69.7159V23.6189C69.7159 24.1789 69.8092 24.6642 69.9959 25.0749C70.1826 25.4669 70.4626 25.7655 70.8359 25.9709C71.2092 26.1762 71.6479 26.2789 72.1519 26.2789C72.9172 26.2789 73.5146 26.0455 73.9439 25.5789C74.3732 25.1122 74.5879 24.4589 74.5879 23.6189V15.8629H78.2558V23.7029C78.2558 24.8975 77.9945 25.9429 77.4718 26.8389C76.9679 27.7349 76.2492 28.4349 75.3159 28.9389C74.4012 29.4242 73.3466 29.6669 72.1519 29.6669Z" fill="white"/>
<path d="M82.3248 29.3869V10.2349H85.9927V29.3869H82.3248ZM79.1608 19.0829V15.8629H89.1567V19.0829H79.1608Z" fill="white"/>
<path d="M96.1475 29.6669C94.9528 29.6669 93.8888 29.4149 92.9555 28.9109C92.0408 28.4069 91.3222 27.7069 90.7995 26.8109C90.2768 25.9149 90.0155 24.8789 90.0155 23.7029V15.8629H93.7115V23.6189C93.7115 24.1789 93.8048 24.6642 93.9915 25.0749C94.1782 25.4669 94.4581 25.7655 94.8315 25.9709C95.2048 26.1762 95.6435 26.2789 96.1475 26.2789C96.9128 26.2789 97.5101 26.0455 97.9394 25.5789C98.3688 25.1122 98.5834 24.4589 98.5834 23.6189V15.8629H102.251V23.7029C102.251 24.8975 101.99 25.9429 101.467 26.8389C100.963 27.7349 100.245 28.4349 99.3114 28.9389C98.3968 29.4242 97.3421 29.6669 96.1475 29.6669Z" fill="white"/>
<path d="M104.332 29.3869V15.8629H108V29.3869H104.332ZM108 21.9109L106.572 20.9589C106.74 19.2975 107.226 17.9909 108.028 17.0389C108.831 16.0682 109.988 15.5829 111.5 15.5829C112.154 15.5829 112.742 15.6949 113.264 15.9189C113.787 16.1242 114.263 16.4695 114.692 16.9549L112.396 19.5869C112.191 19.3629 111.939 19.1949 111.64 19.0829C111.36 18.9709 111.034 18.9149 110.66 18.9149C109.876 18.9149 109.232 19.1669 108.728 19.6709C108.243 20.1562 108 20.9029 108 21.9109Z" fill="white"/>
<path d="M121.226 29.6669C119.807 29.6669 118.547 29.3682 117.446 28.7709C116.345 28.1549 115.467 27.3149 114.814 26.2509C114.179 25.1869 113.862 23.9735 113.862 22.6109C113.862 21.2669 114.17 20.0722 114.786 19.0269C115.421 17.9629 116.279 17.1229 117.362 16.5069C118.445 15.8722 119.649 15.5549 120.974 15.5549C122.281 15.5549 123.428 15.8535 124.418 16.4509C125.426 17.0295 126.21 17.8322 126.77 18.8589C127.348 19.8669 127.638 21.0149 127.638 22.3029C127.638 22.5455 127.619 22.7975 127.582 23.0589C127.563 23.3015 127.516 23.5815 127.442 23.8989L116.074 23.9269V21.1829L125.734 21.1549L124.25 22.3029C124.212 21.5002 124.063 20.8282 123.802 20.2869C123.559 19.7455 123.195 19.3349 122.71 19.0549C122.243 18.7562 121.665 18.6069 120.974 18.6069C120.246 18.6069 119.611 18.7749 119.07 19.1109C118.529 19.4282 118.109 19.8855 117.81 20.4829C117.53 21.0615 117.39 21.7522 117.39 22.5549C117.39 23.3762 117.539 24.0949 117.838 24.7109C118.155 25.3082 118.603 25.7749 119.182 26.1109C119.761 26.4282 120.433 26.5869 121.198 26.5869C121.889 26.5869 122.514 26.4749 123.074 26.2509C123.634 26.0082 124.119 25.6535 124.53 25.1869L126.686 27.3429C126.032 28.1082 125.23 28.6869 124.278 29.0789C123.344 29.4709 122.327 29.6669 121.226 29.6669Z" fill="white"/>
<path d="M136.57 29.6669C135.599 29.6669 134.722 29.4709 133.938 29.0789C133.154 28.6682 132.529 28.1175 132.062 27.4269C131.596 26.7362 131.344 25.9429 131.306 25.0469V20.2589C131.344 19.3629 131.596 18.5695 132.062 17.8789C132.548 17.1695 133.173 16.6095 133.938 16.1989C134.722 15.7882 135.599 15.5829 136.57 15.5829C137.821 15.5829 138.941 15.8909 139.93 16.5069C140.919 17.1229 141.694 17.9629 142.254 19.0269C142.833 20.0909 143.122 21.2949 143.122 22.6389C143.122 23.9642 142.833 25.1589 142.254 26.2229C141.694 27.2869 140.919 28.1269 139.93 28.7429C138.941 29.3589 137.821 29.6669 136.57 29.6669ZM135.926 26.2789C136.598 26.2789 137.195 26.1295 137.718 25.8309C138.241 25.5135 138.642 25.0842 138.922 24.5429C139.221 23.9829 139.37 23.3389 139.37 22.6109C139.37 21.9015 139.221 21.2762 138.922 20.7349C138.642 20.1749 138.241 19.7455 137.718 19.4469C137.195 19.1295 136.598 18.9709 135.926 18.9709C135.273 18.9709 134.685 19.1295 134.162 19.4469C133.64 19.7455 133.229 20.1749 132.93 20.7349C132.65 21.2762 132.51 21.9015 132.51 22.6109C132.51 23.3389 132.65 23.9829 132.93 24.5429C133.229 25.0842 133.63 25.5135 134.134 25.8309C134.657 26.1295 135.254 26.2789 135.926 26.2789ZM129.066 35.0429V15.8629H132.734V19.4189L132.118 22.6949L132.706 25.9709V35.0429H129.066Z" fill="white"/>
<path d="M151.155 29.6669C149.736 29.6669 148.476 29.3682 147.375 28.7709C146.274 28.1549 145.396 27.3149 144.743 26.2509C144.108 25.1869 143.791 23.9735 143.791 22.6109C143.791 21.2669 144.099 20.0722 144.715 19.0269C145.35 17.9629 146.208 17.1229 147.291 16.5069C148.374 15.8722 149.578 15.5549 150.903 15.5549C152.21 15.5549 153.358 15.8535 154.347 16.4509C155.355 17.0295 156.139 17.8322 156.699 18.8589C157.278 19.8669 157.567 21.0149 157.567 22.3029C157.567 22.5455 157.548 22.7975 157.511 23.0589C157.492 23.3015 157.446 23.5815 157.371 23.8989L146.003 23.9269V21.1829L155.663 21.1549L154.179 22.3029C154.142 21.5002 153.992 20.8282 153.731 20.2869C153.488 19.7455 153.124 19.3349 152.639 19.0549C152.172 18.7562 151.594 18.6069 150.903 18.6069C150.175 18.6069 149.54 18.7749 148.999 19.1109C148.458 19.4282 148.038 19.8855 147.739 20.4829C147.459 21.0615 147.319 21.7522 147.319 22.5549C147.319 23.3762 147.468 24.0949 147.767 24.7109C148.084 25.3082 148.532 25.7749 149.111 26.1109C149.69 26.4282 150.362 26.5869 151.127 26.5869C151.818 26.5869 152.443 26.4749 153.003 26.2509C153.563 26.0082 154.048 25.6535 154.459 25.1869L156.615 27.3429C155.962 28.1082 155.159 28.6869 154.207 29.0789C153.274 29.4709 152.256 29.6669 151.155 29.6669Z" fill="white"/>
<path d="M164.707 29.6669C163.457 29.6669 162.337 29.3589 161.347 28.7429C160.358 28.1269 159.574 27.2869 158.995 26.2229C158.435 25.1589 158.155 23.9642 158.155 22.6389C158.155 21.2949 158.435 20.0909 158.995 19.0269C159.574 17.9629 160.349 17.1229 161.319 16.5069C162.309 15.8909 163.438 15.5829 164.707 15.5829C165.678 15.5829 166.546 15.7789 167.311 16.1709C168.095 16.5629 168.721 17.1135 169.187 17.8229C169.673 18.5135 169.934 19.2975 169.971 20.1749V24.9909C169.934 25.8682 169.682 26.6615 169.215 27.3709C168.749 28.0802 168.123 28.6402 167.339 29.0509C166.555 29.4615 165.678 29.6669 164.707 29.6669ZM165.323 26.2789C166.014 26.2789 166.611 26.1295 167.115 25.8309C167.638 25.5135 168.039 25.0842 168.319 24.5429C168.618 23.9829 168.767 23.3389 168.767 22.6109C168.767 21.9015 168.618 21.2762 168.319 20.7349C168.039 20.1749 167.638 19.7455 167.115 19.4469C166.611 19.1295 166.023 18.9709 165.351 18.9709C164.661 18.9709 164.054 19.1295 163.531 19.4469C163.027 19.7642 162.626 20.1935 162.327 20.7349C162.047 21.2762 161.907 21.9015 161.907 22.6109C161.907 23.3389 162.047 23.9829 162.327 24.5429C162.626 25.0842 163.037 25.5135 163.559 25.8309C164.082 26.1295 164.67 26.2789 165.323 26.2789ZM172.211 29.3869H168.571V25.7469L169.159 22.4429L168.543 19.1949V9.14286H172.211V29.3869Z" fill="white"/>
<path d="M174.616 29.3869V15.8629H178.312V29.3869H174.616Z" fill="white"/>
<path d="M186.377 29.6669C185.145 29.6669 184.035 29.3589 183.045 28.7429C182.056 28.1269 181.281 27.2869 180.721 26.2229C180.161 25.1589 179.881 23.9642 179.881 22.6389C179.881 21.2949 180.161 20.0909 180.721 19.0269C181.281 17.9629 182.056 17.1229 183.045 16.5069C184.035 15.8909 185.145 15.5829 186.377 15.5829C187.348 15.5829 188.216 15.7789 188.981 16.1709C189.747 16.5629 190.353 17.1135 190.801 17.8229C191.268 18.5135 191.52 19.2975 191.557 20.1749V25.0469C191.52 25.9429 191.268 26.7362 190.801 27.4269C190.353 28.1175 189.747 28.6682 188.981 29.0789C188.216 29.4709 187.348 29.6669 186.377 29.6669ZM187.049 26.2789C188.076 26.2789 188.907 25.9429 189.541 25.2709C190.176 24.5802 190.493 23.6935 190.493 22.6109C190.493 21.9015 190.344 21.2762 190.045 20.7349C189.765 20.1749 189.364 19.7455 188.841 19.4469C188.337 19.1295 187.74 18.9709 187.049 18.9709C186.377 18.9709 185.78 19.1295 185.257 19.4469C184.753 19.7455 184.352 20.1749 184.053 20.7349C183.773 21.2762 183.633 21.9015 183.633 22.6109C183.633 23.3389 183.773 23.9829 184.053 24.5429C184.352 25.0842 184.753 25.5135 185.257 25.8309C185.78 26.1295 186.377 26.2789 187.049 26.2789ZM190.297 29.3869V25.7469L190.885 22.4429L190.297 19.1949V15.8629H193.937V29.3869H190.297Z" fill="white"/>
<ellipse cx="19.9998" cy="20" rx="19.9998" ry="20" fill="white"/>
<path d="M12.6696 23.6273C12.6696 24.0271 12.9937 24.3512 13.3935 24.3512V24.3512C16.0589 24.3512 18.2195 22.1905 18.2195 19.5252V14.699V9.39043C18.2195 8.99065 17.8954 8.66656 17.4957 8.66656V8.66656C14.8303 8.66656 12.6696 10.8272 12.6696 13.4926V23.6273Z" fill="#273653"/>
<path d="M12.6696 13.4926C12.6696 10.8272 14.8303 8.66656 17.4957 8.66656L26.5444 8.66641C28.2102 8.66641 29.5606 10.0168 29.5606 11.6827C29.5606 13.3485 28.2102 14.699 26.5444 14.699H18.2195H15.4446H13.876C13.2098 14.699 12.6696 14.1588 12.6696 13.4926V13.4926Z" fill="#273653"/>
<path d="M12.6696 23.1448C12.6696 20.4794 14.8303 18.3188 17.4957 18.3188H22.4423C24.1081 18.3188 25.4585 19.6692 25.4585 21.335V21.335C25.4585 23.0009 24.1081 24.3513 22.4423 24.3513H12.6696V23.1448Z" fill="#49ADFF"/>
<path d="M12.6696 28.3326C12.6696 29.9984 14.0201 31.3488 15.6859 31.3488V31.3488C17.3517 31.3488 18.7021 29.9984 18.7021 28.3326V28.3326C18.7021 26.6667 17.3517 25.3163 15.6859 25.3163H12.6696V28.3326Z" fill="#273653"/>
<path d="M178.871 11.4286C178.871 12.6909 177.848 13.7143 176.586 13.7143C175.323 13.7143 174.3 12.6909 174.3 11.4286C174.3 10.1662 175.323 9.14286 176.586 9.14286C177.848 9.14286 178.871 10.1662 178.871 11.4286Z" fill="#49ADFF"/>
<path d="M176.586 13.7143C175.323 13.7143 174.3 12.6909 174.3 11.4286V13.7143H176.586Z" fill="#49ADFF"/>
</svg>
