<svg viewBox="0.00 0.00 192.00 192.00" version="1.1" xmlns="http://www.w3.org/2000/svg">
<g stroke-linecap="butt" fill="none" stroke-width="2.00">
<path d="M 86.84 36.68
  L 85.71 68.57" stroke="#5f3df9"></path>
<path d="M 70.06 61.44
  Q 64.87 57.24 57.69 56.25
  C 51.80 55.43 46.74 57.57 41.74 60.56" stroke="#5f3df9"></path>
<path d="M 156.39 72.68
  Q 157.47 75.65 157.13 78.00
  C 155.96 86.14 147.43 89.74 141.08 93.00
  A 2.39 2.37 -13.4 0 0 139.78 95.10
  L 139.58 122.94
  A 0.88 0.87 24.6 0 0 139.80 123.52
  Q 140.52 124.29 140.99 124.32" stroke="#5b36f9"></path>
<path d="M 83.56 155.88
  C 78.33 153.64 74.17 152.16 71.80 146.43
  Q 69.01 139.67 69.86 132.91" stroke="#5b36f9"></path>
</g>
<path d="M 86.84 36.68
  L 85.71 68.57
  L 70.06 61.44
  Q 64.87 57.24 57.69 56.25
  C 51.80 55.43 46.74 57.57 41.74 60.56
  Q 41.69 41.82 41.75 23.75
  Q 41.75 22.25 43.42 21.16
  C 47.06 18.76 50.31 18.06 54.50 20.18
  Q 70.94 28.47 86.84 36.68
  Z" fill="#6d52f9"></path>
<path d="M 86.84 36.68
  L 156.39 72.68
  Q 157.47 75.65 157.13 78.00
  C 155.96 86.14 147.43 89.74 141.08 93.00
  A 2.39 2.37 -13.4 0 0 139.78 95.10
  L 139.58 122.94
  A 0.88 0.87 24.6 0 0 139.80 123.52
  Q 140.52 124.29 140.99 124.32
  L 83.56 155.88
  C 78.33 153.64 74.17 152.16 71.80 146.43
  Q 69.01 139.67 69.86 132.91
  L 139.72 93.45
  Q 140.12 93.22 139.70 93.03
  L 85.71 68.57
  L 86.84 36.68
  Z" fill="#5128f9"></path>
<path d="M 70.06 61.44
  L 69.95 82.73
  Q 69.95 83.46 69.22 83.46
  L 42.31 83.37
  Q 41.77 83.37 41.77 82.83
  L 41.74 60.56
  C 46.74 57.57 51.80 55.43 57.69 56.25
  Q 64.87 57.24 70.06 61.44
  Z" fill="#5128f9"></path>
<path d="M 156.39 72.68
  Q 164.04 76.44 171.51 80.18
  Q 178.45 83.66 180.36 85.80
  C 184.91 90.89 184.54 100.10 177.83 103.86
  Q 159.46 114.15 140.99 124.32
  Q 140.52 124.29 139.80 123.52
  A 0.88 0.87 24.6 0 1 139.58 122.94
  L 139.78 95.10
  A 2.39 2.37 -13.4 0 1 141.08 93.00
  C 147.43 89.74 155.96 86.14 157.13 78.00
  Q 157.47 75.65 156.39 72.68
  Z" fill="#6444f9"></path>
<path d="M 69.86 132.91
  Q 69.01 139.67 71.80 146.43
  C 74.17 152.16 78.33 153.64 83.56 155.88
  Q 71.08 162.69 58.81 169.66
  Q 55.12 171.76 53.25 172.11
  C 49.43 172.82 44.70 171.43 42.58 167.98
  Q 41.55 166.28 41.50 162.80
  Q 41.20 141.54 41.00 119.65
  A 0.62 0.61 -83.1 0 0 40.55 119.07
  L 7.90 110.68
  Q 4.36 109.77 8.02 109.77
  L 68.99 109.77
  Q 69.84 109.77 69.84 110.61
  L 69.86 132.91
  Z" fill="#6444f9"></path>
</svg>
