<svg width="60" height="60" viewBox="0 0 60 60" fill="none" xmlns="http://www.w3.org/2000/svg"><path d="M30 6.5625C25.3645 6.5625 20.8331 7.93709 16.9788 10.5124C13.1246 13.0878 10.1205 16.7482 8.34658 21.0309C6.57265 25.3135 6.10851 30.026 7.01286 34.5724C7.9172 39.1189 10.1494 43.295 13.4272 46.5728C16.705 49.8506 20.8812 52.0828 25.4276 52.9872C29.974 53.8915 34.6865 53.4274 38.9692 51.6534C43.2518 49.8795 46.9122 46.8755 49.4876 43.0212C52.0629 39.1669 53.4375 34.6355 53.4375 30C53.4307 23.7861 50.9592 17.8286 46.5653 13.4347C42.1714 9.04082 36.2139 6.56932 30 6.5625ZM16.1414 46.5047C17.5325 44.0553 19.5478 42.0183 21.9822 40.6012C24.4167 39.1842 27.1832 38.4376 30 38.4376C32.8168 38.4376 35.5834 39.1842 38.0178 40.6012C40.4522 42.0183 42.4676 44.0553 43.8586 46.5047C39.9795 49.7712 35.0712 51.5624 30 51.5624C24.9288 51.5624 20.0205 49.7712 16.1414 46.5047ZM45.2742 45.2039C42.9452 41.3101 39.2114 38.458 34.8422 37.2352C36.8737 36.1548 38.4855 34.4261 39.4212 32.324C40.3569 30.222 40.5628 27.8674 40.0061 25.6349C39.4494 23.4024 38.162 21.4202 36.3489 20.0037C34.5357 18.5871 32.3009 17.8177 30 17.8177C27.6991 17.8177 25.4643 18.5871 23.6512 20.0037C21.838 21.4202 20.5507 23.4024 19.9939 25.6349C19.4372 27.8674 19.6431 30.222 20.5788 32.324C21.5145 34.4261 23.1264 36.1548 25.1578 37.2352C20.7886 38.458 17.0548 41.3101 14.7258 45.2039C11.7179 42.1853 9.67196 38.3431 8.84621 34.1625C8.02046 29.9819 8.45196 25.6503 10.0862 21.7148C11.7205 17.7792 14.4843 14.4162 18.0285 12.0503C21.5728 9.68437 25.7386 8.42169 30 8.42169C34.2614 8.42169 38.4272 9.68437 41.9715 12.0503C45.5157 14.4162 48.2795 17.7792 49.9138 21.7148C51.5481 25.6503 51.9796 29.9819 51.1538 34.1625C50.3281 38.3431 48.2821 42.1853 45.2742 45.2039ZM30 36.5625C28.3312 36.5625 26.6999 36.0676 25.3124 35.1405C23.9248 34.2134 22.8434 32.8956 22.2048 31.3539C21.5662 29.8121 21.3991 28.1156 21.7246 26.4789C22.0502 24.8422 22.8538 23.3388 24.0338 22.1588C25.2138 20.9788 26.7172 20.1752 28.3539 19.8496C29.9907 19.5241 31.6871 19.6912 33.2289 20.3298C34.7707 20.9684 36.0884 22.0498 37.0155 23.4374C37.9427 24.8249 38.4375 26.4562 38.4375 28.125C38.4375 30.3628 37.5486 32.5089 35.9662 34.0912C34.3839 35.6736 32.2378 36.5625 30 36.5625Z" fill="#49ADFF"></path><path d="M45.2742 45.2039C42.9452 41.3101 39.2114 38.458 34.8422 37.2352C36.8737 36.1548 38.4855 34.4261 39.4212 32.324C40.3569 30.222 40.5628 27.8674 40.0061 25.6349C39.4494 23.4024 38.162 21.4202 36.3489 20.0037C34.5357 18.5871 32.3009 17.8177 30 17.8177C27.6991 17.8177 25.4643 18.5871 23.6512 20.0037C21.838 21.4202 20.5507 23.4024 19.9939 25.6349C19.4372 27.8674 19.6431 30.222 20.5788 32.324C21.5145 34.4261 23.1264 36.1548 25.1578 37.2352C20.7886 38.458 17.0548 41.3101 14.7258 45.2039C11.7179 42.1853 9.67196 38.3431 8.84621 34.1625C8.02046 29.9819 8.45196 25.6503 10.0862 21.7148C11.7205 17.7792 14.4843 14.4162 18.0285 12.0503C21.5728 9.68437 25.7386 8.42169 30 8.42169C34.2614 8.42169 38.4272 9.68437 41.9715 12.0503C45.5157 14.4162 48.2795 17.7792 49.9138 21.7148C51.5481 25.6503 51.9796 29.9819 51.1538 34.1625C50.3281 38.3431 48.2821 42.1853 45.2742 45.2039Z" fill="#5570FF" fill-opacity="0.1"></path></svg>