<svg width="60" height="60" viewBox="0 0 60 60" fill="none" xmlns="http://www.w3.org/2000/svg"><path d="M38.0203 29.2196L26.7703 21.7196C26.6291 21.6254 26.4649 21.5713 26.2954 21.563C26.1258 21.5548 25.9572 21.5928 25.8075 21.6729C25.6578 21.7531 25.5327 21.8723 25.4456 22.018C25.3584 22.1637 25.3124 22.3303 25.3125 22.5V37.5001C25.3123 37.6698 25.3582 37.8364 25.4453 37.9821C25.5324 38.1279 25.6574 38.2472 25.807 38.3274C25.9568 38.4076 26.1255 38.4456 26.2952 38.4373C26.4648 38.4291 26.6291 38.3749 26.7703 38.2805L38.0203 30.7805C38.1489 30.6949 38.2544 30.5789 38.3273 30.4428C38.4002 30.3066 38.4384 30.1545 38.4384 30.0001C38.4384 29.8456 38.4002 29.6935 38.3273 29.5574C38.2544 29.4212 38.1489 29.3052 38.0203 29.2196ZM27.1875 35.7493V24.2508L35.8102 30.0001L27.1875 35.7493ZM54.0141 16.5305C53.8308 15.8103 53.479 15.1439 52.9875 14.5865C52.496 14.029 51.8791 13.5964 51.1875 13.3243C43.2656 10.2633 30.532 10.3125 30 10.3125C29.468 10.3125 16.7344 10.2633 8.8125 13.3243C8.1212 13.5961 7.5044 14.0284 7.01296 14.5855C6.52152 15.1425 6.16951 15.8084 5.98594 16.5282C5.39063 18.8133 4.6875 23.0063 4.6875 30.0001C4.6875 36.9938 5.39063 41.1868 5.98594 43.4719C6.16951 44.1917 6.52152 44.8576 7.01296 45.4146C7.5044 45.9717 8.1212 46.404 8.8125 46.6758C16.7344 49.7368 29.468 49.6876 30 49.6876H30.1664C31.7813 49.6876 43.6617 49.5868 51.1945 46.6758C51.8858 46.404 52.5026 45.9717 52.9941 45.4146C53.4855 44.8576 53.8375 44.1917 54.0211 43.4719C54.6094 41.1844 55.3125 36.9938 55.3125 30.0001C55.3125 23.0063 54.6094 18.8133 54.0141 16.5282V16.5305ZM52.2 43.0149C52.0911 43.4469 51.881 43.8469 51.5872 44.1818C51.2935 44.5168 50.9243 44.7771 50.5102 44.9415C42.9868 47.8327 30.3469 47.8131 30.006 47.8126C30.0031 47.8126 30 47.8126 30 47.8126C30 47.8126 29.9969 47.8126 29.994 47.8126C29.6539 47.8131 17.0204 47.8327 9.49688 44.9274C9.08274 44.7631 8.71357 44.5027 8.41978 44.1678C8.12598 43.8328 7.91597 43.4329 7.80703 43.0008C7.23516 40.8211 6.5625 36.7969 6.5625 30.0001C6.5625 23.2032 7.23516 19.179 7.8 16.9993C7.90894 16.5672 8.11895 16.1673 8.41275 15.8323C8.70654 15.4974 9.07571 15.237 9.48984 15.0727C17.0134 12.1674 29.6538 12.187 29.994 12.1875C29.9969 12.1875 30 12.1875 30 12.1875C30 12.1875 30.0032 12.1875 30.0063 12.1875C30.3535 12.187 42.9818 12.1659 50.5031 15.0727C50.9173 15.237 51.2864 15.4974 51.5802 15.8323C51.874 16.1673 52.084 16.5672 52.193 16.9993C52.7648 19.179 53.4375 23.2032 53.4375 30.0001C53.4375 36.7969 52.7648 40.8211 52.2 43.0008V43.0149Z" fill="#49ADFF"></path><path fill-rule="evenodd" clip-rule="evenodd" d="M52.2 43.0149C52.0911 43.4469 51.881 43.8469 51.5872 44.1818C51.2935 44.5168 50.9243 44.7771 50.5102 44.9415C42.9868 47.8327 30.3469 47.8131 30.006 47.8126L30 47.8126L29.994 47.8126C29.6539 47.8131 17.0204 47.8327 9.49688 44.9274C9.08274 44.7631 8.71357 44.5027 8.41978 44.1678C8.12598 43.8328 7.91597 43.4329 7.80703 43.0008C7.23516 40.8211 6.5625 36.7969 6.5625 30.0001C6.5625 23.2032 7.23516 19.179 7.8 16.9993C7.90894 16.5672 8.11895 16.1673 8.41275 15.8323C8.70654 15.4974 9.07571 15.237 9.48984 15.0727C17.0134 12.1674 29.6538 12.187 29.994 12.1875L30 12.1875L30.0063 12.1875C30.3535 12.187 42.9818 12.1659 50.5031 15.0727C50.9173 15.237 51.2864 15.4974 51.5802 15.8323C51.874 16.1673 52.084 16.5672 52.193 16.9993C52.7648 19.179 53.4375 23.2032 53.4375 30.0001C53.4375 36.7969 52.7648 40.8211 52.2 43.0008V43.0149ZM26.7703 21.7196L38.0203 29.2196C38.1489 29.3052 38.2544 29.4212 38.3273 29.5574C38.4002 29.6935 38.4384 29.8456 38.4384 30.0001C38.4384 30.1545 38.4002 30.3066 38.3273 30.4428C38.2544 30.5789 38.1489 30.6949 38.0203 30.7805L26.7703 38.2805C26.6291 38.3749 26.4648 38.4291 26.2952 38.4373C26.1255 38.4456 25.9568 38.4076 25.807 38.3274C25.6574 38.2472 25.5324 38.1279 25.4453 37.9821C25.3582 37.8364 25.3123 37.6698 25.3125 37.5001V22.5C25.3124 22.3303 25.3584 22.1637 25.4456 22.018C25.5327 21.8723 25.6578 21.7531 25.8075 21.6729C25.9572 21.5928 26.1258 21.5548 26.2954 21.563C26.4649 21.5713 26.6291 21.6254 26.7703 21.7196Z" fill="#5570FF" fill-opacity="0.1"></path></svg>